<?xml version="1.0" standalone="no"?>
<!DOCTYPE svg PUBLIC "-//W3C//DTD SVG 20010904//EN"
 "http://www.w3.org/TR/2001/REC-SVG-20010904/DTD/svg10.dtd">
<svg version="1.0" xmlns="http://www.w3.org/2000/svg"
 width="512.000000pt" height="512.000000pt" viewBox="0 0 512.000000 512.000000"
 preserveAspectRatio="xMidYMid meet">

<g transform="translate(0.000000,512.000000) scale(0.100000,-0.100000)"
fill="#000000" stroke="none">
<path d="M2380 4954 c-491 -45 -952 -227 -1320 -522 -474 -381 -785 -927 -877
-1541 -24 -161 -24 -503 0 -661 67 -440 246 -851 518 -1187 312 -387 776 -681
1274 -808 212 -54 341 -69 585 -69 397 0 701 70 1055 243 257 126 450 264 650
466 302 303 520 693 624 1116 51 209 65 330 65 569 0 400 -76 725 -253 1075
-243 480 -604 837 -1086 1075 -235 116 -462 187 -715 225 -102 15 -430 27
-520 19z m1676 -734 c182 -159 376 -410 493 -639 110 -214 190 -468 227 -716
34 -237 20 -568 -36 -795 l-18 -75 -1 339 -1 339 -125 167 c-69 92 -133 174
-142 182 -10 9 -133 48 -273 88 -140 40 -258 75 -262 79 -4 4 -25 90 -45 191
l-38 185 -185 149 c-102 82 -185 151 -185 155 0 4 27 74 59 156 l59 150 181
66 c100 37 184 66 188 65 4 0 51 -39 104 -86z m-2880 -290 l184 -205 -3 -199
-2 -200 -379 -228 c-209 -125 -387 -235 -397 -245 -11 -12 -28 -73 -48 -172
-17 -85 -33 -156 -35 -159 -3 -2 -43 11 -89 29 l-84 33 4 75 c23 450 178 886
439 1234 71 95 207 247 217 244 5 -1 91 -95 193 -207z"/>
</g>
</svg>
