<svg width="430" height="430" viewBox="0 0 430 430" fill="none" xmlns="http://www.w3.org/2000/svg">
<path d="M276.65 82.0596C278.53 83.9496 277.19 87.1696 274.52 87.1696H215V47.1396H274.52C277.19 47.1396 278.53 50.3596 276.65 52.2496L261.88 67.1497L276.65 82.0497V82.0596Z" fill="#92140C"/>
<path d="M215 47.1396V124.98" stroke="#92140C" stroke-width="12" stroke-linecap="round" stroke-linejoin="round"/>
<g style="mix-blend-mode:multiply" opacity="0.5">
<path d="M215 47.1396V124.98" stroke="#92140C" stroke-width="12" stroke-linecap="round" stroke-linejoin="round"/>
</g>
<path d="M361.78 201.659V372.119C361.78 373.779 360.44 375.119 358.78 375.119H71.22C69.56 375.119 68.22 373.779 68.22 372.119V201.659H121.6L212.88 110.379C214.05 109.209 215.95 109.209 217.12 110.379L308.4 201.659H361.78Z" fill="#EBE6EF"/>
<path d="M188.32 134.939L121.6 201.659H46.84C44.51 201.659 43.07 199.119 44.27 197.119L80.7 136.409C81.24 135.509 82.22 134.949 83.27 134.949H188.32V134.939Z" fill="#3A3347"/>
<path d="M383.12 201.649H308.36L241.64 134.939H346.69C347.74 134.939 348.72 135.489 349.26 136.399L385.69 197.109C386.89 199.109 385.45 201.649 383.12 201.649Z" fill="#3A3347"/>
<path d="M255.35 308.77V375.21H174.66V308.77C174.66 288.17 190.08 271.19 210 268.72C211.64 268.52 213.31 268.42 215 268.42C216.69 268.42 218.36 268.52 220 268.72C229.15 269.86 237.34 274.05 243.53 280.24C250.83 287.54 255.35 297.62 255.35 308.77Z" fill="#92140C"/>
<g style="mix-blend-mode:multiply" opacity="0.5">
<path d="M220 268.72V374.32C220 374.62 219.97 374.92 219.92 375.21H210.08C210.03 374.92 210 374.62 210 374.32V268.72C211.64 268.52 213.31 268.42 215 268.42C216.69 268.42 218.36 268.52 220 268.72Z" fill="#92140C"/>
</g>
<path d="M241.64 188.27C241.64 202.98 229.71 214.91 215 214.91C200.29 214.91 188.36 202.98 188.36 188.27C188.36 173.56 200.29 161.63 215 161.63C229.71 161.63 241.64 173.56 241.64 188.27Z" fill="#F28BA8"/>
<path d="M145.28 274.199H111.25C109.59 274.199 108.25 272.859 108.25 271.199V254.179C108.25 243.129 117.21 234.159 128.26 234.159C139.31 234.159 148.27 243.119 148.27 254.179V271.199C148.27 272.859 146.93 274.199 145.27 274.199H145.28Z" fill="#4BB3FD"/>
<path d="M318.75 274.199H284.72C283.06 274.199 281.72 272.859 281.72 271.199V254.179C281.72 243.129 290.68 234.159 301.73 234.159C312.78 234.159 321.74 243.119 321.74 254.179V271.199C321.74 272.859 320.4 274.199 318.74 274.199H318.75Z" fill="#4BB3FD"/>
<g style="mix-blend-mode:multiply" opacity="0.5">
<path d="M114 134.949L73.97 201.659H46.84C44.51 201.659 43.07 199.119 44.27 197.119L80.7 136.409C81.24 135.509 82.22 134.949 83.27 134.949H114.01H114Z" fill="#3A3347"/>
</g>
<g style="mix-blend-mode:multiply" opacity="0.5">
<path d="M230.32 123.579L139.76 214.129L130.48 223.409H89.99V375.119H71.22C69.56 375.119 68.22 373.779 68.22 372.119V201.659H121.61L212.88 110.379C214.05 109.209 215.95 109.209 217.12 110.379L230.32 123.579Z" fill="#EBE6EF"/>
</g>
<path d="M215 172.979V188.27H225.07" stroke="#92140C" stroke-width="7" stroke-linecap="round" stroke-linejoin="round"/>
<g style="mix-blend-mode:multiply" opacity="0.5">
<path d="M128.27 234.17V274.2H111.26C109.6 274.2 108.26 272.86 108.26 271.2V254.19C108.26 243.13 117.22 234.17 128.27 234.17Z" fill="#4BB3FD"/>
</g>
<g style="mix-blend-mode:multiply" opacity="0.5">
<path d="M301.74 234.17V274.2H284.72C283.06 274.2 281.72 272.86 281.72 271.2V254.19C281.72 243.13 290.68 234.17 301.74 234.17Z" fill="#4BB3FD"/>
</g>
</svg>
