<svg viewBox="0 0 64 64" xmlns="http://www.w3.org/2000/svg"><g fill="#c74841"><path d="m55 47 2.95 1.97a30.967 30.967 0 0 1 -5.95 6.71v-6.68z"/><path d="m28 18v4h-2l-1-2z"/><path d="m58 27 1-1-1-3-5-4v-1h-4l-4 1h-4l-1-2h-5l-2 3h4l1 2-3 1h-2l-5 5v3h1l4-4h2l2 4h3v2h-1-4l-1-1h-2l-6 5v4l2 2h5v1l1 2v3l1 5h4l3-5v-1l-1-2 3-2v-2h-5v-6h2l1 3h3v-3l-1-2 4 1v4h1l3-3 1 4v4h2v-4h2v-1l-2-2h1l1-3v-2h2v-3l-1-1z"/><path d="m18 13-4 1-6 5-4 4v2h2v9l2.08 1.38.92.62 3 4v4l2 1 1 6h2l3-4v-2l1-2-3-3-2-3h-3-1l-1-3h-2v-2h3v-2l1-1 1-1v-2l3-1v-1l-1-2h-3l-1 2-2-1 1-2 1-1 1-1 1 1 2-1v-2l-1-1h2 2v3 2h2v-2l3-1 3-4v-1l1-1v-2z"/></g><path d="m1 32a31 31 0 1 1 56.95 16.97l-2.95-1.97-3 2v6.68a31 31 0 0 1 -51-23.68zm23-14 3-4v-1l1-1v-2l-10 3-4 1-6 5-4 4v2h2v9l2.08 1.38.92.62 3 4v4l2 1 1 6h2l3-4v-2l1-2-3-3-2-3h-4l-1-3h-2v-2h3v-2l1-1 1-1v-2l3-1v-1l-1-2h-3l-1 2-2-1 1-2 1-1 1-1 1 1 2-1v-2l-1-1h4v5h2v-2zm1 2 1 2h2v-4zm19 22h-5v-6h2l1 3h3v-3l-1-2 4 1v4h1l3-3 1 4v4h2v-4h2v-1l-2-2h1l1-3v-2h2v-3l-1-1v-1l1-1-1-3-5-4v-1h-4l-4 1h-4l-1-2h-5l-2 3h4l1 2-3 1h-2l-5 5v3h1l4-4h2l2 4h3v2h-5l-1-1h-2l-6 5v4l2 2h5v1l1 2v3l1 5h4l3-5v-1l-1-2 3-2z" fill="#34c1ad"/><path d="m52 50.59v5.09a30.967 30.967 0 0 0 5.95-6.71l-1.268-.847a30.846 30.846 0 0 1 -4.682 2.467z" fill="#ad3a34"/><path d="m39 54 .606-1.01a31.229 31.229 0 0 1 -4.9-.449l.294 1.459z" fill="#ad3a34"/><path d="m4 23v2h2v9l2.08 1.38.92.62 3 4v4l2 1 1 6h2l3-4v-1.322a31.135 31.135 0 0 1 -7.13-8.678h-.87l-1-3h-2v-2h1.658a30.8 30.8 0 0 1 -1.385-14.061l-1.273 1.061z" fill="#ad3a34"/><path d="m9 34h2l1 3h.87a30.79 30.79 0 0 1 -2.212-5h-1.658z" fill="#21abab"/><path d="m40 53c-.132 0-.262-.008-.394-.01l-.606 1.01h-4l-.292-1.459a30.878 30.878 0 0 1 -14.708-6.863v1.322l-3 4h-2l-1-6-2-1v-4l-3-4-.92-.62-2.08-1.38v-9h-2v-2l4-4 1.273-1.061a30.79 30.79 0 0 1 3.045-9.889 31 31 0 1 0 39.682 47.63v-5.09a30.9 30.9 0 0 1 -12 2.41z" fill="#21abab"/><path d="m57.95 48.97a30.873 30.873 0 0 0 1.715-3.007 31.261 31.261 0 0 1 -2.983 2.16z" fill="#21abab"/><path d="m42.69 10h-5.69v-3c3.65.05 5.14 1.92 5.69 3z" fill="#96e0ff"/><path d="m20.25 7.67-3.5-6.67h3.5l7.51 6.35c-2.42.13-5.02.27-7.51.41z" fill="#d4d4d4"/><path d="m37 10h5.69a3.235 3.235 0 0 1 .31.75s0 2.25-3.5 2.25h-7.38l-11.2 8h-4.67l6.54-8h-17.08a3.384 3.384 0 0 1 -3.45-2.51l-1.26-6.49h2.62l4.38 4.5s5.77-.37 12.25-.74c2.49-.14 5.09-.28 7.51-.41 3.98-.2 7.45-.35 9.11-.35h.13z" fill="#e3e3e3"/><path d="m11.6 16h3.4 2 2 .79l-.79.966v.67l3.79-4.636h-4.79l-4 1z" fill="#ad3a34"/><path d="m14.885 22-1.635 2h3.75l-1-2z" fill="#ad3a34"/><path d="m14 14 4-1h-10.485a31.01 31.01 0 0 0 -2.07 3h6.155z" fill="#21abab"/><path d="m20.92 21h-4.67l2.75-3.364v-.67l-4.115 5.034h1.115l1 2h.92l11.2-8h7.38c3.5 0 3.5-2.25 3.5-2.25a3.235 3.235 0 0 0 -.31-.75v-.008c-.064 0-.12.008-.186.008h-7.384l-11.12 7.943v.057z" fill="#21abab"/><path d="m23.07 6a2 2 0 0 1 -1.664-.891l-2.739-4.109h-1.917l3.5 6.67v.09c2.49-.14 5.09-.28 7.51-.41l-1.597-1.35z" fill="#bfbfbf"/><path d="m6.342 12a3 3 0 0 1 -2.91-2.272l-1.432-5.728h-1l1.26 6.49a3.384 3.384 0 0 0 3.45 2.51h16.957l1.333-1z" fill="#bfbfbf"/><path d="m41 12h-8l-1 1 .018.073.1-.073h7.382c3.5 0 3.5-2.25 3.5-2.25s-.022-.09-.075-.235a2 2 0 0 1 -1.925 1.485z" fill="#bfbfbf"/><path d="m39 9h3a6.038 6.038 0 0 0 -4-1.922v.922a1 1 0 0 0 1 1z" fill="#b3f5ff"/></svg>